{
  "accessors": [
    {
      "bufferView": 2,
      "componentType": 5126,
      "count": 1602,
      "max": [
        4.734011650085449,
        -1.0487407445907593,
        -8.099093437194824
      ],
      "min": [
        3.784345865249634,
        -1.9652589559555054,
        -8.420015335083008
      ],
      "type": "VEC3"
    },
    {
      "bufferView": 2,
      "byteOffset": 19224,
      "componentType": 5126,
      "count": 1602,
      "max": [
        0.9933624863624573,
        0.9999738931655884,
        1.0
      ],
      "min": [
        -0.9978510141372681,
        -0.999691367149353,
        -1.0
      ],
      "type": "VEC3"
    },
    {
      "bufferView": 0,
      "componentType": 5125,
      "count": 9600,
      "type": "SCALAR"
    },
    {
      "bufferView": 2,
      "byteOffset": 38448,
      "componentType": 5126,
      "count": 1602,
      "max": [
        0.7760632038116455,
        2.236151695251465,
        -5.664767742156982
      ],
      "min": [
        0.26906341314315796,
        1.7133629322052002,
        -5.841545581817627
      ],
      "type": "VEC3"
    },
    {
      "bufferView": 2,
      "byteOffset": 57672,
      "componentType": 5126,
      "count": 1602,
      "max": [
        0.9990671873092651,
        0.9988849759101868,
        1.0
      ],
      "min": [
        -0.9999383687973022,
        -0.9910828471183777,
        -1.0
      ],
      "type": "VEC3"
    },
    {
      "bufferView": 0,
      "byteOffset": 38400,
      "componentType": 5125,
      "count": 9600,
      "type": "SCALAR"
    },
    {
      "bufferView": 2,
      "byteOffset": 76896,
      "componentType": 5126,
      "count": 1602,
      "max": [
        -2.1149935722351074,
        -1.9885748624801636,
        -2.8807759284973145
      ],
      "min": [
        -2.624706745147705,
        -2.5106093883514404,
        -3.057551145553589
      ],
      "type": "VEC3"
    },
    {
      "bufferView": 2,
      "byteOffset": 96120,
      "componentType": 5126,
      "count": 1602,
      "max": [
        0.9993225336074829,
        0.9873316884040833,
        1.0
      ],
      "min": [
        -0.9976270794868469,
        -0.9997686147689819,
        -1.0
      ],
      "type": "VEC3"
    },
    {
      "bufferView": 0,
      "byteOffset": 76800,
      "componentType": 5125,
      "count": 9600,
      "type": "SCALAR"
    },
    {
      "bufferView": 2,
      "byteOffset": 115344,
      "componentType": 5126,
      "count": 1602,
      "max": [
        -2.0080478191375732,
        2.9282066822052,
        2.8103859424591064
      ],
      "min": [
        -3.427027702331543,
        1.448150873184204,
        2.310385227203369
      ],
      "type": "VEC3"
    },
    {
      "bufferView": 2,
      "byteOffset": 134568,
      "componentType": 5126,
      "count": 1602,
      "max": [
        1.0,
        0.9959142208099365,
        1.0
      ],
      "min": [
        -1.0,
        -0.9959142208099365,
        -1.0
      ],
      "type": "VEC3"
    },
    {
      "bufferView": 0,
      "byteOffset": 115200,
      "componentType": 5125,
      "count": 9600,
      "type": "SCALAR"
    },
    {
      "bufferView": 2,
      "byteOffset": 153792,
      "componentType": 5126,
      "count": 1602,
      "max": [
        1.0039212703704834,
        -0.7249524593353271,
        2.8054280281066895
      ],
      "min": [
        0.3874562978744507,
        -1.3243483304977417,
        2.596877098083496
      ],
      "type": "VEC3"
    },
    {
      "bufferView": 2,
      "byteOffset": 173016,
      "componentType": 5126,
      "count": 1602,
      "max": [
        0.9897297620773315,
        0.9985971450805664,
        1.0
      ],
      "min": [
        -0.9992998838424683,
        -0.9997814893722534,
        -1.0
      ],
      "type": "VEC3"
    },
    {
      "bufferView": 0,
      "byteOffset": 153600,
      "componentType": 5125,
      "count": 9600,
      "type": "SCALAR"
    },
    {
      "bufferView": 2,
      "byteOffset": 192240,
      "componentType": 5126,
      "count": 35729,
      "max": [
        3.9121668338775635,
        1.885269045829773,
        2.622594118118286
      ],
      "min": [
        -2.1684117317199707,
        -2.117033004760742,
        -0.44941577315330505
      ],
      "type": "VEC3"
    },
    {
      "bufferView": 2,
      "byteOffset": 620988,
      "componentType": 5126,
      "count": 35729,
      "max": [
        0.999646782875061,
        0.9998546838760376,
        0.999997615814209
      ],
      "min": [
        -0.9985801577568054,
        -0.9999818801879883,
        -0.9999939203262329
      ],
      "type": "VEC3"
    },
    {
      "bufferView": 1,
      "componentType": 5126,
      "count": 35729,
      "max": [
        0.9998682737350464,
        0.9998971819877625
      ],
      "min": [
        0.00010285031021339819,
        0.00010285031021339819
      ],
      "type": "VEC2"
    },
    {
      "bufferView": 0,
      "byteOffset": 192000,
      "componentType": 5125,
      "count": 200832,
      "type": "SCALAR"
    },
    {
      "bufferView": 2,
      "byteOffset": 1049736,
      "componentType": 5126,
      "count": 9131,
      "max": [
        0.10884734243154526,
        1.3761281967163086,
        2.2123398780822754
      ],
      "min": [
        -1.1690881252288818,
        0.2839016616344452,
        1.7078088521957397
      ],
      "type": "VEC3"
    },
    {
      "bufferView": 2,
      "byteOffset": 1159308,
      "componentType": 5126,
      "count": 9131,
      "max": [
        0.999903678894043,
        0.9995685815811157,
        1.0
      ],
      "min": [
        -0.999289870262146,
        -0.9999606609344482,
        -1.0
      ],
      "type": "VEC3"
    },
    {
      "bufferView": 1,
      "byteOffset": 285832,
      "componentType": 5126,
      "count": 9131,
      "max": [
        0.9944174289703369,
        1.000000238418579
      ],
      "min": [
        0.005582690238952637,
        0.0
      ],
      "type": "VEC2"
    },
    {
      "bufferView": 0,
      "byteOffset": 995328,
      "componentType": 5125,
      "count": 42240,
      "type": "SCALAR"
    },
    {
      "bufferView": 2,
      "byteOffset": 1268880,
      "componentType": 5126,
      "count": 65532,
      "max": [
        3.9113008975982666,
        1.6633461713790894,
        2.166273832321167
      ],
      "min": [
        -1.7458784580230713,
        -0.7030482292175293,
        -0.002660399302840233
      ],
      "type": "VEC3"
    },
    {
      "bufferView": 2,
      "byteOffset": 2055264,
      "componentType": 5126,
      "count": 65532,
      "max": [
        0.9998571872711182,
        0.9999969005584717,
        0.9999991655349731
      ],
      "min": [
        -0.9999730587005615,
        -0.999995231628418,
        -0.9999853372573853
      ],
      "type": "VEC3"
    },
    {
      "bufferView": 1,
      "byteOffset": 358880,
      "componentType": 5126,
      "count": 65532,
      "max": [
        0.9999000430107117,
        1.000000238418579
      ],
      "min": [
        0.00010018516331911087,
        0.0
      ],
      "type": "VEC2"
    },
    {
      "bufferView": 0,
      "byteOffset": 1164288,
      "componentType": 5125,
      "count": 368160,
      "type": "SCALAR"
    },
    {
      "bufferView": 2,
      "byteOffset": 2841648,
      "componentType": 5126,
      "count": 7491,
      "max": [
        0.16702182590961456,
        1.9798482656478882,
        2.1026296615600586
      ],
      "min": [
        -1.1495031118392944,
        0.4073450565338135,
        1.1913683414459229
      ],
      "type": "VEC3"
    },
    {
      "bufferView": 2,
      "byteOffset": 2931540,
      "componentType": 5126,
      "count": 7491,
      "max": [
        0.9996069669723511,
        0.9994926452636719,
        0.9999994039535522
      ],
      "min": [
        -0.999819278717041,
        -0.9998924732208252,
        -0.9998927116394043
      ],
      "type": "VEC3"
    },
    {
      "bufferView": 1,
      "byteOffset": 883136,
      "componentType": 5126,
      "count": 7491,
      "max": [
        0.9392032623291016,
        1.000000238418579
      ],
      "min": [
        0.00018914170505013317,
        0.0
      ],
      "type": "VEC2"
    },
    {
      "bufferView": 0,
      "byteOffset": 2636928,
      "componentType": 5125,
      "count": 38880,
      "type": "SCALAR"
    },
    {
      "bufferView": 2,
      "byteOffset": 3021432,
      "componentType": 5126,
      "count": 1191,
      "max": [
        -0.38994094729423523,
        1.2681488990783691,
        1.983755111694336
      ],
      "min": [
        -1.1380562782287598,
        1.0161632299423218,
        1.8880960941314697
      ],
      "type": "VEC3"
    },
    {
      "bufferView": 2,
      "byteOffset": 3035724,
      "componentType": 5126,
      "count": 1191,
      "max": [
        0.9971223473548889,
        0.9971223473548889,
        1.0
      ],
      "min": [
        -0.9971223473548889,
        -0.9971223473548889,
        -1.0
      ],
      "type": "VEC3"
    },
    {
      "bufferView": 1,
      "byteOffset": 943064,
      "componentType": 5126,
      "count": 1191,
      "max": [
        0.9942307472229004,
        0.8154711723327637
      ],
      "min": [
        0.005769014358520508,
        0.005768954753875732
      ],
      "type": "VEC2"
    },
    {
      "bufferView": 0,
      "byteOffset": 2792448,
      "componentType": 5125,
      "count": 4608,
      "type": "SCALAR"
    },
    {
      "bufferView": 3,
      "componentType": 5126,
      "count": 40,
      "max": [
        1.6666666269302368
      ],
      "min": [
        0.0416666679084301
      ],
      "type": "SCALAR"
    },
    {
      "bufferView": 4,
      "componentType": 5126,
      "count": 40,
      "max": [
        0.0,
        0.4627685248851776,
        -0.0
      ],
      "min": [
        0.0,
        0.0,
        -0.0
      ],
      "type": "VEC3"
    },
    {
      "bufferView": 3,
      "byteOffset": 160,
      "componentType": 5126,
      "count": 40,
      "max": [
        1.6666666269302368
      ],
      "min": [
        0.0416666679084301
      ],
      "type": "SCALAR"
    },
    {
      "bufferView": 4,
      "byteOffset": 480,
      "componentType": 5126,
      "count": 40,
      "max": [
        0.0,
        0.0,
        -0.0
      ],
      "min": [
        0.0,
        -0.9978446364402771,
        -0.0
      ],
      "type": "VEC3"
    },
    {
      "bufferView": 3,
      "byteOffset": 320,
      "componentType": 5126,
      "count": 40,
      "max": [
        1.6666666269302368
      ],
      "min": [
        0.0416666679084301
      ],
      "type": "SCALAR"
    },
    {
      "bufferView": 4,
      "byteOffset": 960,
      "componentType": 5126,
      "count": 40,
      "max": [
        0.0,
        0.0,
        -0.0
      ],
      "min": [
        0.0,
        -0.15907667577266693,
        -0.0
      ],
      "type": "VEC3"
    }
  ],
  "animations": [
    {
      "channels": [
        {
          "sampler": 0,
          "target": {
            "node": 3,
            "path": "translation"
          }
        },
        {
          "sampler": 1,
          "target": {
            "node": 7,
            "path": "translation"
          }
        },
        {
          "sampler": 2,
          "target": {
            "node": 10,
            "path": "translation"
          }
        }
      ],
      "name": "Animation",
      "samplers": [
        {
          "input": 35,
          "interpolation": "LINEAR",
          "output": 36
        },
        {
          "input": 37,
          "interpolation": "LINEAR",
          "output": 38
        },
        {
          "input": 39,
          "interpolation": "LINEAR",
          "output": 40
        }
      ]
    }
  ],
  "asset": {
    "extras": {
      "author": "Prinavu (https://sketchfab.com/Prinavu)",
      "license": "CC-BY-4.0 (http://creativecommons.org/licenses/by/4.0/)",
      "source": "https://sketchfab.com/3d-models/floating-fox-497de71996cf4f4d86e387028938aceb",
      "title": "Floating Fox"
    },
    "generator": "Sketchfab-12.67.0",
    "version": "2.0"
  },
  "bufferViews": [
    {
      "buffer": 0,
      "byteLength": 2810880,
      "name": "floatBufferViews",
      "target": 34963
    },
    {
      "buffer": 0,
      "byteLength": 952592,
      "byteOffset": 2810880,
      "byteStride": 8,
      "name": "floatBufferViews",
      "target": 34962
    },
    {
      "buffer": 0,
      "byteLength": 3050016,
      "byteOffset": 3763472,
      "byteStride": 12,
      "name": "floatBufferViews",
      "target": 34962
    },
    {
      "buffer": 0,
      "byteLength": 480,
      "byteOffset": 6813488,
      "name": "floatBufferViews"
    },
    {
      "buffer": 0,
      "byteLength": 1440,
      "byteOffset": 6813968,
      "byteStride": 12,
      "name": "floatBufferViews"
    }
  ],
  "buffers": [
    {
      "byteLength": 6815408,
      "uri": "scene.bin"
    }
  ],
  "materials": [
    {
      "doubleSided": true,
      "emissiveFactor": [
        1.0,
        1.0,
        0.23510899999999996
      ],
      "name": "Material.007",
      "pbrMetallicRoughness": {
        "baseColorFactor": [
          0.7999999999999999,
          0.4059560000000003,
          0.0655005,
          1.0
        ],
        "metallicFactor": 0.0,
        "roughnessFactor": 0.221739
      }
    },
    {
      "doubleSided": true,
      "emissiveFactor": [
        1.0,
        1.0,
        0.23510899999999996
      ],
      "name": "Material.010",
      "pbrMetallicRoughness": {
        "baseColorFactor": [
          0.7999999999999999,
          0.4059560000000003,
          0.0655005,
          1.0
        ],
        "metallicFactor": 0.0,
        "roughnessFactor": 0.221739
      }
    },
    {
      "doubleSided": true,
      "emissiveFactor": [
        1.0,
        1.0,
        0.23510899999999996
      ],
      "name": "Material.011",
      "pbrMetallicRoughness": {
        "baseColorFactor": [
          0.7999999999999999,
          0.4059560000000003,
          0.0655005,
          1.0
        ],
        "metallicFactor": 0.0,
        "roughnessFactor": 0.221739
      }
    },
    {
      "doubleSided": true,
      "emissiveFactor": [
        1.0,
        1.0,
        0.23510899999999996
      ],
      "name": "Material.012",
      "pbrMetallicRoughness": {
        "baseColorFactor": [
          0.7999999999999999,
          0.4059560000000003,
          0.0655005,
          1.0
        ],
        "metallicFactor": 0.0,
        "roughnessFactor": 0.221739
      }
    },
    {
      "doubleSided": true,
      "emissiveFactor": [
        1.0,
        1.0,
        0.23510899999999996
      ],
      "name": "Material.013",
      "pbrMetallicRoughness": {
        "baseColorFactor": [
          0.7999999999999999,
          0.4059560000000003,
          0.0655005,
          1.0
        ],
        "metallicFactor": 0.0,
        "roughnessFactor": 0.221739
      }
    },
    {
      "doubleSided": true,
      "name": "Material",
      "pbrMetallicRoughness": {
        "baseColorFactor": [
          0.5222901936851719,
          0.727283704934567,
          0.9182446216851564,
          1.0
        ],
        "metallicFactor": 0.0
      }
    },
    {
      "doubleSided": true,
      "name": "Material.002",
      "pbrMetallicRoughness": {
        "baseColorFactor": [
          0.0568989,
          0.0132218,
          0.0134962,
          1.0
        ],
        "metallicFactor": 0.0
      }
    },
    {
      "doubleSided": true,
      "name": "Material.005",
      "pbrMetallicRoughness": {
        "baseColorFactor": [
          0.8,
          0.0794767,
          0.0,
          1.0
        ],
        "metallicFactor": 0.0
      }
    },
    {
      "doubleSided": true,
      "name": "Material.003",
      "pbrMetallicRoughness": {
        "baseColorFactor": [
          0.00629231,
          0.00629231,
          0.00629231,
          1.0
        ],
        "metallicFactor": 0.0,
        "roughnessFactor": 0.16087
      }
    }
  ],
  "meshes": [
    {
      "name": "Object_0",
      "primitives": [
        {
          "attributes": {
            "NORMAL": 1,
            "POSITION": 0
          },
          "indices": 2,
          "material": 0,
          "mode": 4
        }
      ]
    },
    {
      "name": "Object_1",
      "primitives": [
        {
          "attributes": {
            "NORMAL": 4,
            "POSITION": 3
          },
          "indices": 5,
          "material": 1,
          "mode": 4
        }
      ]
    },
    {
      "name": "Object_2",
      "primitives": [
        {
          "attributes": {
            "NORMAL": 7,
            "POSITION": 6
          },
          "indices": 8,
          "material": 2,
          "mode": 4
        }
      ]
    },
    {
      "name": "Object_3",
      "primitives": [
        {
          "attributes": {
            "NORMAL": 10,
            "POSITION": 9
          },
          "indices": 11,
          "material": 3,
          "mode": 4
        }
      ]
    },
    {
      "name": "Object_4",
      "primitives": [
        {
          "attributes": {
            "NORMAL": 13,
            "POSITION": 12
          },
          "indices": 14,
          "material": 4,
          "mode": 4
        }
      ]
    },
    {
      "name": "Object_5",
      "primitives": [
        {
          "attributes": {
            "NORMAL": 16,
            "POSITION": 15,
            "TEXCOORD_0": 17
          },
          "indices": 18,
          "material": 5,
          "mode": 4
        }
      ]
    },
    {
      "name": "Object_6",
      "primitives": [
        {
          "attributes": {
            "NORMAL": 20,
            "POSITION": 19,
            "TEXCOORD_0": 21
          },
          "indices": 22,
          "material": 6,
          "mode": 4
        }
      ]
    },
    {
      "name": "Object_7",
      "primitives": [
        {
          "attributes": {
            "NORMAL": 24,
            "POSITION": 23,
            "TEXCOORD_0": 25
          },
          "indices": 26,
          "material": 7,
          "mode": 4
        }
      ]
    },
    {
      "name": "Object_8",
      "primitives": [
        {
          "attributes": {
            "NORMAL": 28,
            "POSITION": 27,
            "TEXCOORD_0": 29
          },
          "indices": 30,
          "material": 7,
          "mode": 4
        }
      ]
    },
    {
      "name": "Object_9",
      "primitives": [
        {
          "attributes": {
            "NORMAL": 32,
            "POSITION": 31,
            "TEXCOORD_0": 33
          },
          "indices": 34,
          "material": 8,
          "mode": 4
        }
      ]
    }
  ],
  "nodes": [
    {
      "children": [
        1
      ],
      "matrix": [
        1.0,
        0.0,
        0.0,
        0.0,
        0.0,
        2.220446049250313e-16,
        -1.0,
        0.0,
        0.0,
        1.0,
        2.220446049250313e-16,
        0.0,
        0.0,
        2.220446049250313e-16,
        4.930380657631324e-32,
        1.0
      ],
      "name": "Sketchfab_model"
    },
    {
      "children": [
        2
      ],
      "name": "root"
    },
    {
      "children": [
        3,
        7,
        10
      ],
      "matrix": [
        1.0,
        0.0,
        0.0,
        0.0,
        0.0,
        2.220446049250313e-16,
        1.0,
        0.0,
        0.0,
        -1.0,
        2.220446049250313e-16,
        0.0,
        0.0,
        0.0,
        0.0,
        1.0
      ],
      "name": "GLTF_SceneRootNode"
    },
    {
      "children": [
        4,
        5,
        6
      ],
      "name": "Star.001_1"
    },
    {
      "mesh": 0,
      "name": "Object_4"
    },
    {
      "mesh": 1,
      "name": "Object_5"
    },
    {
      "mesh": 2,
      "name": "Object_6"
    },
    {
      "children": [
        8,
        9
      ],
      "name": "Star.004_2"
    },
    {
      "mesh": 3,
      "name": "Object_8"
    },
    {
      "mesh": 4,
      "name": "Object_9"
    },
    {
      "children": [
        11,
        12,
        13,
        14,
        15
      ],
      "name": "Cube_3"
    },
    {
      "mesh": 5,
      "name": "Object_11"
    },
    {
      "mesh": 6,
      "name": "Object_12"
    },
    {
      "mesh": 7,
      "name": "Object_13"
    },
    {
      "mesh": 8,
      "name": "Object_14"
    },
    {
      "mesh": 9,
      "name": "Object_15"
    }
  ],
  "scene": 0,
  "scenes": [
    {
      "name": "Sketchfab_Scene",
      "nodes": [
        0
      ]
    }
  ]
}
